<?xml version="1.0" encoding="iso-8859-1"?>
<!-- Generator: Adobe Illustrator 18.0.0, SVG Export Plug-In . SVG Version: 6.00 Build 0)  -->
<!DOCTYPE svg PUBLIC "-//W3C//DTD SVG 1.1//EN" "http://www.w3.org/Graphics/SVG/1.1/DTD/svg11.dtd">
<svg version="1.1" id="Capa_1" xmlns="http://www.w3.org/2000/svg" xmlns:xlink="http://www.w3.org/1999/xlink" x="0px" y="0px"
	 viewBox="0 0 60 60" style="enable-background:new 0 0 60 60;" xml:space="preserve">
<path d="M39.475,10H38V6.013V1.498C38,0.672,37.328,0,36.502,0H34H24h-0.502C22.672,0,22,0.672,22,1.498V10h-1.475
	C19.684,10,19,10.684,19,11.525v2.95C19,15.316,19.684,16,20.525,16H22v13v23c0,4.411,3.589,8,8,8s8-3.589,8-8V29V16h1.475
	C40.316,16,41,15.316,41,14.475v-2.95C41,10.684,40.316,10,39.475,10z M34,8.5C34,7.673,34.673,7,35.5,7
	c0.188,0,0.356,0.037,0.5,0.09V9.91C35.856,9.963,35.688,10,35.5,10C34.673,10,34,9.327,34,8.5z M31.829,2
	C31.416,3.164,30.304,4,29,4s-2.416-0.836-2.829-2H31.829z M24.101,2C24.566,4.279,26.586,6,29,6s4.434-1.721,4.899-4H36v3.041
	C35.835,5.017,35.669,5,35.5,5C33.57,5,32,6.57,32,8.5c0,0.539,0.133,1.044,0.351,1.5h-1.402C30.697,7.756,28.81,6,26.5,6
	c-0.925,0-1.784,0.282-2.5,0.762V2H24.101z M28.95,10H24.05c0.232-1.14,1.242-2,2.45-2S28.717,8.86,28.95,10z M36,52
	c0,3.309-2.691,6-6,6s-6-2.691-6-6V31h12V52z M36,29H24V16h12V29z M39,14h-1H22h-1v-2h1h0.183h7.767H38h1V14z"/>
<g>
</g>
<g>
</g>
<g>
</g>
<g>
</g>
<g>
</g>
<g>
</g>
<g>
</g>
<g>
</g>
<g>
</g>
<g>
</g>
<g>
</g>
<g>
</g>
<g>
</g>
<g>
</g>
<g>
</g>
</svg>
