<svg height="511pt" viewBox="-115 1 511 511.999" width="511pt" xmlns="http://www.w3.org/2000/svg"><path d="m20.089844 431.25c7.402344 7.65625 12.753906 13.191406 12.746094 25.621094l-.011719 25.628906c0 16.722656 9.085937 27.734375 24.308593 29.453125.28125.03125.5625.046875.84375.046875h40.230469c4.144531 0 7.5-3.359375 7.5-7.5 0-4.144531-3.355469-7.5-7.5-7.5h-39.777343c-7.332032-.96875-10.605469-5.457031-10.605469-14.496094 0 0 .011719-25.609375.011719-25.625.011718-18.5-9.003907-27.828125-16.957032-36.054687-8.261718-8.546875-15.394531-15.929688-15.375-34.34375.070313-98.777344 0-113.882813 0-130.480469 0-8.296875 6.75-15.050781 15.050782-15.050781 8.300781 0 15.050781 6.75 15.050781 15.050781v44.308594c0 4.140625 3.355469 7.5 7.5 7.5s7.5-3.359375 7.5-7.5c0-6.636719 0-42.113282 0-48.871094 0-8.296875 6.753906-15.050781 15.050781-15.050781 8.300781 0 15.054688 6.753906 15.054688 15.050781v48.871094c0 4.140625 3.355468 7.5 7.5 7.5 4.140624 0 7.5-3.359375 7.5-7.5 0-6.332032 0-48.625 0-54.953125 0-8.300781 6.75-15.050781 15.050781-15.050781 8.296875 0 15.050781 6.75 15.050781 15.050781v54.953125c0 4.140625 3.6875 7.5 7.832031 7.5 4.140625 0 7.5-3.359375 7.5-7.5 0-134.007813-.007812-82.402344.007813-192.78125.003906-2.660156.742187-5.1875 1.828125-7.175782 7.449219-13.679687 28.277343-8.394531 28.265625 7.203126v210.457031c0 4.875 3.101562 9.195312 7.722656 10.753906 4.617188 1.558594 9.707031 0 12.660156-3.875l35.972656-47.222656c.046876-.0625.089844-.125.136719-.1875 7.058594-9.878907 15.839844-9.765625 21.703125-6.359375 5.839844 3.390625 10.328125 10.929687 6.390625 19.476562-.019531.042969-.042969.089844-.0625.136719l-44.441406 101.699219c-7.589844 15.734375-16.746094 23.171875-29.175781 35.480468-19.140625 18.960938-5.578125 56.832032-14.648438 66.105469-1.933594 1.976563-5.3125 2.980469-10.042968 2.980469h-34.25c-4.140626 0-7.5 3.355469-7.5 7.5 0 4.140625 3.359374 7.5 7.5 7.5h34.25c8.917968 0 15.90625-2.519531 20.765624-7.488281 8.28125-8.464844 7.996094-21.300781 7.773438-31.617188-.222656-9.9375-.324219-27.355469 6.710938-34.320312 12.671874-12.550781 23.960937-21.976563 32.253906-39.882813.019531-.042968.039062-.089844.0625-.136718l44.460937-101.75c7.460938-16.273438-.640625-31.757813-12.511719-38.652344-11.886718-6.90625-29.28125-6.324219-41.375 10.511718l-29.355468 38.539063v-120.492187c32.835937-10.9375 57.65625-39.199219 63.960937-73.476563.75-4.074219-1.945312-7.984375-6.019531-8.734375s-7.984375 1.945312-8.734375 6.019531c-5.011719 27.234375-23.878906 49.976563-49.207031 60.226563v-27.695313c16.054687-10.273437 25.859375-27.976562 25.859375-47.242187 0-30.9375-25.171875-56.109375-56.105469-56.109375-30.9375 0-56.109375 25.167969-56.109375 56.109375 0 19.460937 9.953125 37.257812 26.253906 47.492187l-.003906 27.621094c-30.433594-12.066406-50.949219-41.683594-50.949219-75.113281 0-44.558594 36.25-80.808594 80.804688-80.808594 37.703125 0 70.902344 26.695312 78.9375 63.476562.886718 4.046876 4.882812 6.609376 8.929687 5.726563s6.609375-4.882813 5.726563-8.929687c-9.429688-43.15625-47.914063-75.273438-93.59375-75.273438-52.828125 0-95.808594 42.980469-95.808594 95.808594 0 41.625 26.847656 78.246094 65.953125 91.035156v32.703125c-4.503906-2.695313-9.765625-4.242187-15.382813-4.242187-10.527343 0-19.808593 5.441406-25.175781 13.65625-5.308593-4.710938-12.289062-7.574219-19.929687-7.574219-10.117188 0-19.089844 5.03125-24.535156 12.722656-5.382813-5.058594-12.617188-8.160156-20.566407-8.160156-16.570312 0-30.050781 13.480469-30.050781 30.054687v130.46875c-.023438 24.480469 10.851562 35.734375 19.589844 44.777344zm116.050781-307.175781c-24.707031-26.03125-6.183594-69.371094 29.855469-69.371094 22.664062 0 41.105468 18.4375 41.105468 41.105469 0 10.5-3.976562 20.371094-10.855468 27.839844v-16.082032c.011718-16.578125-13.433594-30.089844-29.992188-30.105468-.007812 0-.011718 0-.019531 0-16.582031 0-30.074219 13.484374-30.082031 30.058593zm0 0"/></svg>