<svg height="511pt" viewBox="-115 0 511 511.99981" width="511pt" xmlns="http://www.w3.org/2000/svg"><path d="m98.207031 307.804688c4.144531 0 7.5-3.355469 7.5-7.5 0-6.328126 0-48.621094 0-54.949219 0-8.300781 6.75-15.050781 15.050781-15.050781 8.300782 0 15.050782 6.75 15.050782 15.050781v54.949219c0 4.144531 3.691406 7.5 7.832031 7.5 4.144531 0 7.5-3.355469 7.5-7.5 0-207.425782-.003906-169.976563.007813-192.777344.007812-8.320313 6.78125-15.066406 15.082031-15.066406h.007812c8.28125.007812 15.011719 6.777343 15.003907 15.097656v88.453125c0 4.140625 3.359374 7.5 7.5 7.5 4.144531 0 7.5-3.359375 7.5-7.5v-67.449219h46.464843c7.59375 0 13.773438-6.179688 13.773438-13.773438v-41.011718c0-7.597656-6.179688-13.773438-13.773438-13.773438h-153.535156c-7.597656 0-13.773437 6.175782-13.773437 13.773438v41.007812c0 7.597656 6.179687 13.777344 13.773437 13.777344h46.972656l-.007812 90.980469c-4.5-2.691407-9.761719-4.242188-15.378907-4.242188-10.527343 0-19.808593 5.441407-25.175781 13.660157-5.308593-4.710938-12.289062-7.574219-19.929687-7.574219-10.117188 0-19.089844 5.027343-24.535156 12.71875-5.382813-5.054688-12.617188-8.15625-20.566407-8.15625-16.570312 0-30.050781 13.480469-30.050781 30.050781v130.46875c-.039062 43.492188 32.351562 42.523438 32.332031 70.398438l-.011719 25.628906c0 16.722656 9.089844 27.734375 24.3125 29.453125.648438.074219-1.742187.046875 40.195313.046875 4.144531 0 7.5-3.359375 7.5-7.5 0-4.144532-3.355469-7.5-7.5-7.5h-38.898437c-7.332032-.96875-10.605469-5.457032-10.605469-14.496094 0 0 .011719-25.609375.011719-25.625.023437-36.828125-32.371094-33.328125-32.335938-70.398438.074219-98.777343 0-113.882812 0-130.480468 0-8.296875 6.753906-15.050782 15.054688-15.050782 8.296874 0 15.050781 6.753907 15.050781 15.050782v44.308594c0 4.140624 3.355469 7.5 7.5 7.5 4.140625 0 7.5-3.359376 7.5-7.5 0-6.636719 0-42.109376 0-48.871094 0-8.296875 6.75-15.050782 15.050781-15.050782s15.050781 6.753907 15.050781 15.050782v48.871094c0 4.144531 3.355469 7.5 7.5 7.5zm37.9375-194.242188h-45.746093v-38.558594h151.078124v38.558594h-45.234374v-6c.011718-16.582031-13.441407-30.089844-29.992188-30.101562-.007812 0-.011719 0-.015625 0-16.578125 0-30.074219 13.480468-30.085937 30.058593zm0 0"/><path d="m99.796875 38.984375v-31.484375c0-4.140625-3.355469-7.5-7.5-7.5-4.140625 0-7.5 3.359375-7.5 7.5v31.484375c0 4.144531 3.359375 7.5 7.5 7.5 4.144531 0 7.5-3.355469 7.5-7.5zm0 0"/><path d="m72.300781 54.769531c2.929688-2.929687 2.929688-7.679687 0-10.609375l-22.261719-22.261718c-2.929687-2.929688-7.675781-2.929688-10.605468 0-2.929688 2.929687-2.929688 7.679687 0 10.605468l22.261718 22.265625c2.929688 2.925781 7.675782 2.925781 10.605469 0zm0 0"/><path d="m17.535156 74.761719c0 4.144531 3.359375 7.5 7.5 7.5h31.484375c4.144531 0 7.5-3.355469 7.5-7.5 0-4.140625-3.355469-7.5-7.5-7.5h-31.484375c-4.140625 0-7.5 3.359375-7.5 7.5zm0 0"/><path d="m234.957031 398.691406c.023438-.046875.042969-.09375.0625-.140625l44.464844-101.75c14.679687-32.039062-29.980469-61.414062-53.886719-28.136719l-29.355468 38.535157v-76.1875c0-4.140625-3.355469-7.5-7.5-7.5-4.144532 0-7.5 3.359375-7.5 7.5v86.996093c0 10.84375 13.824218 15.492188 20.382812 6.878907l35.972656-47.222657c.046875-.058593.089844-.121093.136719-.183593 13.359375-18.703125 35.351563-2.628907 28.09375 13.113281-.019531.046875-.042969.089844-.0625.136719l-44.441406 101.699219c-7.566407 15.707031-16.699219 23.128906-29.171875 35.480468-18.804688 18.625-6.019532 57.28125-14.652344 66.105469-1.933594 1.976563-5.3125 2.980469-10.039062 2.980469h-35.128907c-4.144531 0-7.5 3.355468-7.5 7.5 0 4.140625 3.355469 7.5 7.5 7.5h35.128907c31.609374 0 28.761718-29.445313 28.464843-43.8125.113281-12.03125 1.03125-23.917969 6.78125-29.613282 12.699219-12.578124 23.902344-21.914062 32.25-39.878906zm0 0"/></svg>