<?xml version="1.0" encoding="iso-8859-1"?>
<!-- Generator: Adobe Illustrator 16.0.0, SVG Export Plug-In . SVG Version: 6.00 Build 0)  -->
<!DOCTYPE svg PUBLIC "-//W3C//DTD SVG 1.1//EN" "http://www.w3.org/Graphics/SVG/1.1/DTD/svg11.dtd">
<svg version="1.1" id="Layer_1" xmlns="http://www.w3.org/2000/svg" xmlns:xlink="http://www.w3.org/1999/xlink" x="0px" y="0px"
	 width="611.998px" height="611.998px" viewBox="0 0 611.998 611.998" style="enable-background:new 0 0 611.998 611.998;"
	 xml:space="preserve">
<path d="M308.188,0h-4.377C177.288,0,74.354,102.935,74.354,229.457v76.542v76.542c0,126.523,102.933,229.457,229.457,229.457h4.377
	c126.522,0,229.457-102.934,229.457-229.457v-76.542v-76.542C537.643,102.935,434.71,0,308.188,0z M303.811,25.738h4.377
	c100.33,0,183.945,72.908,200.666,168.524c-39.5-71.425-115.616-119.908-202.855-119.908c-87.237,0-163.354,48.48-202.855,119.908
	C119.866,98.646,203.481,25.738,303.811,25.738z M308.188,586.262h-4.377c-100.33,0-183.945-72.908-200.666-168.524
	C142.646,489.165,218.763,537.646,306,537.646s163.354-48.48,202.855-119.908C492.133,513.354,408.518,586.262,308.188,586.262z
	 M305.998,511.905c-113.537,0-205.906-92.369-205.906-205.906c0-113.537,92.37-205.906,205.906-205.906
	c113.537,0,205.906,92.37,205.906,205.906C511.904,419.536,419.535,511.905,305.998,511.905z M336.534,404.8
	c0-6.981-1.373-13.646-3.84-19.755l16.478-11.977l-15.135-20.819l-16.489,11.987c-6.028-5.048-13.192-8.78-21.049-10.752v-20.358
	h-25.738v20.356c-8.943,2.245-16.984,6.774-23.477,12.925l-17.207-10.953l-13.822,21.712l17.181,10.937
	c-1.752,5.252-2.714,10.861-2.714,16.695c0,6.982,1.373,13.646,3.842,19.755l-16.476,11.976l15.131,20.82l16.493-11.987
	c6.028,5.049,13.192,8.78,21.049,10.752v20.357h25.738v-20.359c8.943-2.244,16.982-6.773,23.477-12.924l17.205,10.954l13.821-21.711
	l-17.181-10.938C335.571,416.243,336.534,410.632,336.534,404.8z M283.628,431.968c-14.979,0-27.169-12.188-27.169-27.168
	s12.189-27.168,27.169-27.168c14.98,0,27.168,12.188,27.168,27.168S298.609,431.968,283.628,431.968z M173.94,216.116l18.199,18.2
	l-19.304,19.304l-18.199-18.2L173.94,216.116z M154.639,335.789l18.2,18.199l-19.304,19.304l-18.2-18.199L154.639,335.789z
	 M414.401,386.053l18.199,18.199l-19.304,19.304l-18.199-18.199L414.401,386.053z M443.335,271.297l19.304-19.304l18.2,18.199
	l-19.304,19.304L443.335,271.297z M391.553,182.165l-18.2-18.199l19.304-19.304l18.2,18.199L391.553,182.165z M423.773,293.202
	c13.023-31.257-4.775-68.516-39.68-83.059c-1.987-0.827-4.02-1.575-6.039-2.224c-11.796-3.789-20.467-12.016-23.79-22.572
	c-3.103-9.854-8.032-19.036-14.648-27.293c-15.404-19.209-38.268-30.677-61.165-30.677c-14.908,0-28.713,4.753-39.929,13.743
	c-29.373,23.55-31.817,69.468-5.45,102.356c9.355,11.668,21.419,20.558,34.891,25.711c14.242,5.45,27.2,15.762,37.468,29.824
	c7.834,10.73,18.703,19.205,31.428,24.506c9.329,3.887,19.057,5.858,28.914,5.858c0.004,0,0.002,0,0.005,0
	C391.854,329.375,414.619,315.176,423.773,293.202z M400.015,283.301c-5.227,12.543-18.343,20.335-34.233,20.335
	c-0.002,0-0.003,0-0.003,0c-6.441,0-12.839-1.306-19.018-3.879c-8.379-3.49-15.48-8.998-20.541-15.925
	c-13.203-18.08-30.168-31.458-49.059-38.685c-9.206-3.521-17.507-9.667-24.005-17.771c-17.49-21.816-16.833-51.502,1.467-66.175
	c6.598-5.29,14.837-8.085,23.829-8.085c15.162,0,30.519,7.866,41.082,21.041c4.614,5.755,8.04,12.121,10.181,18.921
	c5.864,18.627,20.616,32.969,40.469,39.349c1.34,0.431,2.692,0.928,4.016,1.479C396,242.987,407.58,265.146,400.015,283.301z"/>
<g>
</g>
<g>
</g>
<g>
</g>
<g>
</g>
<g>
</g>
<g>
</g>
<g>
</g>
<g>
</g>
<g>
</g>
<g>
</g>
<g>
</g>
<g>
</g>
<g>
</g>
<g>
</g>
<g>
</g>
</svg>
